<svg width="40" height="40" viewBox="0 0 40 40" fill="none" xmlns="http://www.w3.org/2000/svg">
<g clip-path="url(#clip0_23_136)">
<path d="M24.1666 12.5C24.3855 12.2812 24.6453 12.1076 24.9313 11.9891C25.2173 11.8707 25.5238 11.8097 25.8333 11.8097C26.1428 11.8097 26.4493 11.8707 26.7353 11.9891C27.0213 12.1076 27.2811 12.2812 27.5 12.5C27.7188 12.7189 27.8924 12.9788 28.0109 13.2647C28.1294 13.5507 28.1903 13.8572 28.1903 14.1667C28.1903 14.4762 28.1294 14.7827 28.0109 15.0687C27.8924 15.3547 27.7188 15.6145 27.5 15.8334L16.25 27.0834L11.6666 28.3334L12.9166 23.75L24.1666 12.5Z" stroke="#667085" stroke-width="1.66667" stroke-linecap="round" stroke-linejoin="round"/>
</g>
<defs>
<clipPath id="clip0_23_136">
<rect width="20" height="20" fill="white" transform="translate(10 10)"/>
</clipPath>
</defs>
</svg>
